<svg width="25" height="25" viewBox="0 0 25 25" fill="none" xmlns="http://www.w3.org/2000/svg">
<path d="M3.56796 15.6884L4.26433 15.467L3.56796 15.6884ZM2.50931 9.67893L3.21319 9.87511L2.50931 9.67893ZM6.93002 5.11342L6.4944 4.52675H6.4944L6.93002 5.11342ZM2.6173 9.33924L3.30524 9.58558L2.6173 9.33924ZM6.45047 21.3961L6.03682 21.9984H6.03682L6.45047 21.3961ZM6.16773 21.1861L5.71078 21.7563L6.16773 21.1861ZM21.1719 15.6884L20.4755 15.467L21.1719 15.6884ZM18.5721 21.1861L19.0291 21.7563L18.5721 21.1861ZM18.2894 21.3961L18.7031 21.9984L18.2894 21.3961ZM17.8099 5.11342L18.2455 4.52675L17.8099 5.11342ZM22.1226 9.33924L21.4346 9.58558L22.1226 9.33924ZM22.2306 9.67893L21.5267 9.87511L22.2306 9.67893ZM12.5447 2.2274L12.5173 2.9576L12.5447 2.2274ZM12.1952 2.2274L12.2226 2.9576L12.1952 2.2274ZM10.4633 16.9063C10.0597 16.9063 9.7326 17.2334 9.7326 17.637C9.7326 18.0405 10.0597 18.3677 10.4633 18.3677V16.9063ZM14.2766 18.3677C14.6801 18.3677 15.0073 18.0405 15.0073 17.637C15.0073 17.2334 14.6801 16.9063 14.2766 16.9063V18.3677ZM4.26433 15.467C3.77408 13.925 3.42454 12.8224 3.24109 11.927C3.06099 11.048 3.05675 10.4364 3.21319 9.87511L1.80542 9.48275C1.56391 10.3493 1.60346 11.2152 1.8094 12.2204C2.012 13.2092 2.39077 14.3974 2.87159 15.9098L4.26433 15.467ZM6.4944 4.52675C5.236 5.46115 4.24489 6.19584 3.51109 6.8752C2.76426 7.56664 2.23279 8.24554 1.92936 9.0929L3.30524 9.58558C3.50107 9.03872 3.8548 8.54858 4.50394 7.94759C5.16611 7.33454 6.08173 6.65343 7.36563 5.70009L6.4944 4.52675ZM3.21319 9.87511C3.24041 9.77746 3.27111 9.68089 3.30524 9.58558L1.92936 9.0929C1.88339 9.22128 1.84205 9.35132 1.80542 9.48275L3.21319 9.87511ZM12.3699 21.4934C10.7825 21.4934 9.65119 21.4924 8.76423 21.3943C7.89518 21.2983 7.33194 21.115 6.86413 20.7937L6.03682 21.9984C6.77477 22.5052 7.60003 22.736 8.60366 22.8469C9.58937 22.9559 10.8149 22.9548 12.3699 22.9548V21.4934ZM2.87159 15.9098C3.35239 17.4221 3.72938 18.6111 4.13428 19.533C4.5457 20.4697 5.01289 21.1971 5.71078 21.7563L6.62469 20.6159C6.17942 20.2591 5.83225 19.7648 5.47235 18.9453C5.10592 18.111 4.75461 17.0092 4.26433 15.467L2.87159 15.9098ZM6.86413 20.7937C6.78225 20.7375 6.70238 20.6782 6.62469 20.6159L5.71078 21.7563C5.8165 21.8411 5.92525 21.9218 6.03682 21.9984L6.86413 20.7937ZM20.4755 15.467C19.9853 17.0092 19.6339 18.111 19.2675 18.9453C18.9076 19.7648 18.5604 20.2591 18.1152 20.6159L19.0291 21.7563C19.727 21.1971 20.1942 20.4697 20.6056 19.533C21.0105 18.6111 21.3875 17.4221 21.8683 15.9098L20.4755 15.467ZM12.3699 22.9548C13.9249 22.9548 15.1505 22.9559 16.1362 22.8469C17.1398 22.736 17.9651 22.5052 18.7031 21.9984L17.8757 20.7937C17.4079 21.115 16.8447 21.2983 15.9756 21.3943C15.0887 21.4924 13.9574 21.4934 12.3699 21.4934V22.9548ZM18.1152 20.6159C18.0375 20.6782 17.9576 20.7375 17.8757 20.7937L18.7031 21.9984C18.8146 21.9218 18.9234 21.8411 19.0291 21.7563L18.1152 20.6159ZM17.3742 5.70009C18.6581 6.65343 19.5738 7.33454 20.2359 7.94759C20.8851 8.54858 21.2388 9.03872 21.4346 9.58558L22.8105 9.0929C22.5071 8.24554 21.9756 7.56664 21.2288 6.8752C20.495 6.19584 19.5039 5.46115 18.2455 4.52675L17.3742 5.70009ZM21.8683 15.9098C22.3491 14.3974 22.7279 13.2092 22.9305 12.2204C23.1364 11.2152 23.176 10.3493 22.9344 9.48275L21.5267 9.87511C21.6831 10.4364 21.6789 11.048 21.4988 11.927C21.3153 12.8224 20.9658 13.925 20.4755 15.467L21.8683 15.9098ZM21.4346 9.58558C21.4688 9.68088 21.4995 9.77746 21.5267 9.87511L22.9344 9.48275C22.8978 9.35132 22.8565 9.22128 22.8105 9.0929L21.4346 9.58558ZM18.2455 4.52675C16.9872 3.59247 15.9971 2.85599 15.1377 2.35246C14.2637 1.84032 13.4631 1.5306 12.5721 1.49719L12.5173 2.9576C13.0779 2.97862 13.6388 3.16804 14.3989 3.61338C15.1736 4.06732 16.0902 4.74664 17.3742 5.70009L18.2455 4.52675ZM7.36563 5.70009C8.64969 4.74664 9.56627 4.06732 10.341 3.61338C11.101 3.16804 11.6619 2.97862 12.2226 2.9576L12.1678 1.49719C11.2767 1.5306 10.4762 1.84032 9.60216 2.35246C8.7428 2.85599 7.75264 3.59247 6.4944 4.52675L7.36563 5.70009ZM12.5721 1.49719C12.4374 1.49214 12.3025 1.49214 12.1678 1.49719L12.2226 2.9576C12.3208 2.95391 12.4191 2.95391 12.5173 2.9576L12.5721 1.49719ZM10.4633 18.3677H14.2766V16.9063H10.4633V18.3677Z" fill="#5E5F60"/>
</svg>
