<svg width="345" height="283" viewBox="0 0 345 283" fill="none" xmlns="http://www.w3.org/2000/svg">
<rect y="251.561" width="344.544" height="0.172276" fill="#EBEBEB"/>
<rect x="250.139" y="262.653" width="59.8825" height="0.172276" fill="#EBEBEB"/>
<rect x="246.463" y="256.254" width="5.99025" height="0.172276" fill="#EBEBEB"/>
<rect x="193.031" y="261.968" width="13.225" height="0.172276" fill="#EBEBEB"/>
<rect x="36.1489" y="257.411" width="14.8822" height="0.172276" fill="#EBEBEB"/>
<rect x="57.1661" y="257.411" width="19.2462" height="0.172276" fill="#EBEBEB"/>
<rect x="143.101" y="260.235" width="32.2755" height="0.172276" fill="#EBEBEB"/>
<path fill-rule="evenodd" clip-rule="evenodd" d="M30.2606 220.828H163.324C165.495 220.825 167.254 219.066 167.256 216.895V29.8499C167.254 27.6789 165.495 25.9195 163.324 25.9165H30.2606C28.0894 25.9192 26.33 27.6787 26.3273 29.8499V216.895C26.33 219.066 28.0894 220.826 30.2606 220.828ZM26.4996 29.8485C26.5019 27.7723 28.1844 26.0897 30.2606 26.0874L163.324 26.0888C165.4 26.0914 167.082 27.7739 167.084 29.8499V216.893C167.082 218.969 165.4 220.652 163.324 220.655H30.2606C28.1844 220.652 26.5019 218.97 26.4996 216.893V29.8485Z" fill="#EBEBEB"/>
<path fill-rule="evenodd" clip-rule="evenodd" d="M179.309 220.828H312.371C314.543 220.826 316.303 219.066 316.305 216.895V29.8499C316.303 27.6787 314.543 25.9192 312.372 25.9165H179.309C177.138 25.9195 175.379 27.6789 175.376 29.8499V216.895C175.379 219.066 177.138 220.825 179.309 220.828ZM175.548 29.8485C175.55 27.7725 177.232 26.0901 179.308 26.0874L312.371 26.0888C314.447 26.0914 316.13 27.7738 316.132 29.8499V216.893C316.13 218.97 314.447 220.652 312.371 220.655H179.308C177.232 220.652 175.55 218.969 175.548 216.893V29.8485Z" fill="#EBEBEB"/>
<rect x="151.264" y="152.747" width="21.3197" height="98.8141" fill="#E6E6E6"/>
<path d="M168.533 251.561H172.583V240.042H164.289L168.533 251.561Z" fill="#F0F0F0"/>
<rect x="44.0989" y="152.747" width="21.3197" height="98.8141" fill="#E6E6E6"/>
<rect x="61.8843" y="152.747" width="110.699" height="91.7459" fill="#F0F0F0"/>
<path d="M169.443 155.891H65.0258V178.574H169.443V155.891Z" fill="#E6E6E6"/>
<path d="M169.443 181.176H118.594V230.093H169.443V181.176Z" fill="#E6E6E6"/>
<path d="M115.875 181.176H65.0258V230.093H115.875V181.176Z" fill="#E6E6E6"/>
<path d="M104.502 189.811C104.502 191.799 106.113 193.411 108.101 193.411C110.09 193.411 111.701 191.799 111.701 189.811C111.701 187.823 110.09 186.211 108.101 186.211C106.113 186.211 104.502 187.823 104.502 189.811Z" fill="#FAFAFA"/>
<path d="M122.767 189.811C122.767 191.799 124.379 193.411 126.367 193.411C127.322 193.411 128.237 193.032 128.913 192.357C129.588 191.682 129.967 190.766 129.967 189.811C129.967 187.823 128.355 186.211 126.367 186.211C124.379 186.211 122.767 187.823 122.767 189.811Z" fill="#FAFAFA"/>
<path d="M65.9341 251.561H61.885V240.042H70.1795L65.9341 251.561Z" fill="#F0F0F0"/>
<path d="M148.363 167.397C148.363 169.385 149.975 170.997 151.963 170.997C153.951 170.997 155.562 169.385 155.562 167.397C155.562 165.409 153.951 163.797 151.963 163.797C149.975 163.797 148.363 165.409 148.363 167.397V167.397Z" fill="#FAFAFA"/>
<path d="M79.8578 167.397C79.8578 169.385 81.4695 170.997 83.4576 170.997C85.4457 170.997 87.0574 169.385 87.0574 167.397C87.0574 165.409 85.4457 163.797 83.4576 163.797C81.4695 163.797 79.8578 165.409 79.8578 167.397Z" fill="#FAFAFA"/>
<rect x="183.769" y="43.5913" width="115.42" height="95.9157" fill="#EBEBEB"/>
<rect x="185.022" y="43.5913" width="116.849" height="95.9157" fill="#F5F5F5"/>
<rect x="183.769" y="139.506" width="125.22" height="3.17815" fill="#EBEBEB"/>
<rect x="196.937" y="139.506" width="108.877" height="3.17815" fill="#F5F5F5"/>
<path d="M298.115 47.5186V135.579H188.779V47.5186L298.115 47.5186Z" fill="#FAFAFA"/>
<path d="M212.084 135.579L244.156 47.5186H259.296L227.224 135.579H212.084Z" fill="white"/>
<path d="M230.477 135.579L262.55 47.5186H268.451L236.379 135.579H230.477Z" fill="white"/>
<path d="M249.465 135.579L281.537 47.5186H287.439L255.367 135.579H249.465Z" fill="white"/>
<path d="M298.115 47.5186V135.579H297.638V47.5186H298.115Z" fill="#EBEBEB"/>
<path opacity="0.5" d="M302.76 52.072H187.34L186.996 49.0469H302.418L302.76 52.072Z" fill="#EBEBEB"/>
<path opacity="0.5" d="M302.76 55.8416H187.34L186.996 52.8164H302.418L302.76 55.8416Z" fill="#EBEBEB"/>
<path opacity="0.5" d="M302.76 59.6131H187.34L186.996 56.5879H302.418L302.76 59.6131Z" fill="#EBEBEB"/>
<path opacity="0.5" d="M302.76 63.3836H187.34L186.996 60.3584H302.418L302.76 63.3836Z" fill="#EBEBEB"/>
<path opacity="0.5" d="M302.76 67.155H187.34L186.996 64.1299H302.418L302.76 67.155Z" fill="#EBEBEB"/>
<path opacity="0.5" d="M302.76 70.9265H187.34L186.996 67.9014H302.418L302.76 70.9265Z" fill="#EBEBEB"/>
<path opacity="0.5" d="M302.76 74.698H187.34L186.996 71.6729H302.418L302.76 74.698Z" fill="#EBEBEB"/>
<path opacity="0.5" d="M302.76 78.469H187.34L186.996 75.4438H302.418L302.76 78.469Z" fill="#EBEBEB"/>
<path opacity="0.5" d="M302.76 82.2405H187.34L186.996 79.2153H302.418L302.76 82.2405Z" fill="#EBEBEB"/>
<path opacity="0.5" d="M302.76 86.012H187.34L186.996 82.9868H302.418L302.76 86.012Z" fill="#EBEBEB"/>
<path opacity="0.5" d="M302.76 89.7835H187.34L186.996 86.7583H302.418L302.76 89.7835Z" fill="#EBEBEB"/>
<path opacity="0.5" d="M302.76 93.5564H187.34L186.996 90.5312H302.418L302.76 93.5564Z" fill="#EBEBEB"/>
<path opacity="0.5" d="M302.76 97.3255H187.34L186.996 94.3003H302.418L302.76 97.3255Z" fill="#EBEBEB"/>
<path opacity="0.5" d="M302.76 101.097H187.34L186.996 98.0718H302.418L302.76 101.097Z" fill="#EBEBEB"/>
<rect x="278.938" y="174.348" width="64.9514" height="10.5509" transform="rotate(180 278.938 174.348)" fill="#EBEBEB"/>
<path d="M213.988 251.561L220.6 174.348H229.506L216.635 251.561H213.988Z" fill="#E0E0E0"/>
<path d="M278.938 251.561L272.326 174.348H263.421L276.291 251.561H278.938Z" fill="#E0E0E0"/>
<path d="M254.636 251.561L249.157 174.348H240.253L251.989 251.561H254.636Z" fill="#E0E0E0"/>
<path d="M72.7071 136.363C74.5666 136.246 76.2914 135.354 77.461 133.904C78.6305 132.453 79.1371 130.578 78.8572 128.736L74.2589 93.98C73.7079 90.0202 70.2155 87.1426 66.2235 87.3591C64.3636 87.4758 62.6383 88.3683 61.4683 89.8187C60.2983 91.2692 59.7911 93.1443 60.0706 94.9868L64.6696 129.743C65.2207 133.704 68.7144 136.581 72.7071 136.363Z" fill="#F5F5F5"/>
<path d="M76.7279 133.8C79.4843 134.489 81.9781 132.892 82.291 130.23L85.0549 106.715C85.2454 103.886 83.3779 101.327 80.6247 100.647C77.8649 99.9574 75.3746 101.555 75.0617 104.217L72.2985 127.731C72.107 130.561 73.9746 133.12 76.7279 133.8Z" fill="#F0F0F0"/>
<path d="M71.781 137.383C69.2313 138.072 66.2538 136.474 65.1285 133.813L55.1898 110.298C54.0645 107.636 55.2187 104.919 57.7677 104.23C60.3173 103.54 63.2948 105.138 64.4201 107.799L74.3588 131.314C75.4841 133.972 74.3299 136.689 71.781 137.383Z" fill="#E6E6E6"/>
<path d="M62.6781 152.747H84.3155L88.8283 126.985H58.1639L62.6781 152.747Z" fill="#E6E6E6"/>
<rect x="90.4752" y="130.662" width="33.9548" height="7.35343" transform="rotate(180 90.4752 130.662)" fill="#E0E0E0"/>
<ellipse cx="171.926" cy="274.885" rx="133.85" ry="7.9885" fill="#F5F5F5"/>
<path d="M217.423 269.814L211.878 269.727L212.224 256.893L217.769 256.98L217.423 269.814Z" fill="#FF8B7B"/>
<path d="M211.815 269.091L217.874 269.185C218.096 269.184 218.282 269.351 218.303 269.571L218.831 274.505C218.851 274.757 218.763 275.006 218.59 275.191C218.416 275.376 218.173 275.479 217.919 275.477C215.737 275.408 212.594 275.228 209.848 275.186C206.635 275.135 206.948 275.266 203.181 275.208C200.904 275.172 200.537 272.864 201.514 272.673C205.964 271.794 206.412 271.748 210.429 269.502C210.847 269.246 211.325 269.104 211.815 269.091Z" fill="#263238"/>
<path d="M210.45 104.774C209.688 106.742 208.858 108.519 208 110.358C207.128 112.175 206.211 113.973 205.217 115.743C203.235 119.383 200.911 122.829 198.276 126.033L197.989 126.378C197.832 126.552 197.693 126.715 197.512 126.887C197.133 127.261 196.711 127.59 196.257 127.869C195.733 128.191 195.164 128.435 194.569 128.594C193.962 128.75 193.333 128.81 192.707 128.772C191.696 128.704 190.712 128.415 189.825 127.925C189.171 127.567 188.558 127.138 187.998 126.646C187.092 125.847 186.277 124.951 185.568 123.975C184.922 123.106 184.321 122.205 183.767 121.275C181.715 117.735 180.051 113.985 178.803 110.091L182.615 108.402C183.615 109.987 184.645 111.634 185.721 113.187C186.785 114.753 187.871 116.289 189.013 117.693C189.579 118.396 190.154 119.071 190.744 119.672C191.263 120.217 191.832 120.714 192.442 121.156C192.633 121.295 192.843 121.406 193.065 121.485C193.197 121.524 193.22 121.474 192.99 121.427C192.728 121.402 192.465 121.45 192.229 121.565C192.144 121.613 192.114 121.624 192.107 121.62C192.1 121.617 192.112 121.591 192.119 121.584L192.281 121.349C193.313 119.92 194.26 118.345 195.198 116.765C196.118 115.165 196.994 113.511 197.853 111.843C198.699 110.166 199.524 108.47 200.328 106.756C201.139 105.066 201.916 103.281 202.646 101.64L210.45 104.774Z" fill="#FF8B7B"/>
<path d="M212.623 101.478C214.315 106.553 204.293 120.389 204.293 120.389L193.399 113.575C195.229 109.187 197.542 105.014 200.295 101.132C204.442 95.6049 210.766 95.9082 212.623 101.478Z" fill="#263238"/>
<path opacity="0.2" d="M206.366 107.436C204.214 108.367 200.499 115.557 200.981 118.32L204.291 120.388C206.688 117.027 208.822 113.487 210.673 109.8C209.184 108.241 207.504 106.947 206.366 107.436Z" fill="black"/>
<path d="M182.995 109.889L181.964 103.633L175.984 105.691C175.984 105.691 176.133 110.611 180.149 111.516L182.995 109.889Z" fill="#FF8B7B"/>
<path d="M177.914 99.418L175.629 101.298C175.249 101.611 175.084 102.114 175.204 102.59L175.983 105.692L181.963 103.632L179.854 99.7889C179.67 99.4553 179.347 99.2206 178.972 99.1489C178.596 99.0771 178.209 99.1758 177.914 99.418Z" fill="#FF8B7B"/>
<path opacity="0.2" d="M212.226 256.9L212.047 263.517L217.594 263.604L217.774 256.987L212.226 256.9Z" fill="black"/>
<path d="M237.31 99.2337C232.124 120.251 234.181 142.558 233.813 147.071L204.085 146.589C201.359 114.127 206.162 97.2044 206.162 97.2044C206.162 97.2044 208.054 96.8356 210.636 96.5709C211.446 96.4875 212.32 96.4145 213.231 96.3641C213.734 96.3345 214.246 96.318 214.765 96.3076C218.993 96.3794 223.213 96.6917 227.404 97.243C228.198 97.3409 229.007 97.4588 229.789 97.5877C230.516 97.7103 231.229 97.8413 231.901 97.9737C234.95 98.5789 237.31 99.2337 237.31 99.2337Z" fill="#263238"/>
<path opacity="0.2" d="M231.329 108.25C230.874 110.283 231.836 119.561 234.056 121.849C234.234 118.879 234.503 115.777 234.895 112.606L231.329 108.25Z" fill="black"/>
<path d="M226.67 83.0293C225.724 87.0073 224.658 94.3442 227.403 97.2475C225.113 99.2651 222.132 101.572 217.295 101.383C212.457 101.195 213.425 97.9603 214.763 96.3149C219.337 95.5746 219.343 92.2267 218.667 89.0317L226.67 83.0293Z" fill="#FF8B7B"/>
<path d="M227.138 96.7136C226.62 97.4456 224.438 99.639 216.226 101.279C217.425 102.132 218.665 104.184 219.304 105.346C219.562 105.823 220.136 106.036 220.645 105.842C223.004 104.896 229.157 101.982 228.89 97.387C228.88 97.2324 228.794 97.0929 228.659 97.0155C228.327 96.8342 227.98 96.6842 227.62 96.5674C227.445 96.5026 227.248 96.5624 227.138 96.7136Z" fill="white"/>
<path d="M212.677 104.162C213.592 102.914 214.815 101.921 216.226 101.28C214.95 100.042 214.408 98.2338 214.795 96.502C214.832 96.3594 214.798 96.2078 214.704 96.0946C214.609 95.9815 214.465 95.921 214.317 95.9319C214.053 95.9586 213.79 96.0025 213.531 96.0636C213.471 96.0771 213.416 96.1034 213.368 96.1408C212.744 96.6157 208.465 100.111 211.181 104.077C211.343 104.323 211.613 104.478 211.908 104.495C212.203 104.512 212.488 104.388 212.677 104.162Z" fill="white"/>
<path opacity="0.2" d="M223.409 85.4785L218.674 89.0284C218.843 89.7701 218.946 90.525 218.983 91.2845C220.724 91.1639 223.173 89.4517 223.423 87.665C223.551 86.9414 223.547 86.2005 223.409 85.4785V85.4785Z" fill="black"/>
<path d="M213.733 81.169C211.399 80.6865 211.155 74.0754 212.246 72.4383C210.73 72.4569 208.365 70.5613 207.826 68.8194C209.48 68.8766 211.864 67.9385 212.246 67.2423C210.615 66.4641 208.115 64.128 207.826 62.1559C211.968 64.1666 215.134 64.3004 216.577 64.128C216.577 64.128 215.192 62.788 215.442 61.1792C218.837 63.0168 222.656 63.9377 226.519 63.8502C230.189 63.7248 232.089 66.6936 230.674 68.8766C233.991 68.7905 231.682 78.125 228.509 80.1068C225.51 81.686 220.108 82.4904 213.733 81.169Z" fill="#263238"/>
<path d="M228.016 76.9903C227.321 82.431 227.191 85.6535 224.232 88.2535C219.782 92.164 213.165 89.1593 212.212 83.6063C211.355 78.6081 212.637 70.5502 218.157 68.7731C220.642 67.9725 223.366 68.4995 225.368 70.1686C227.371 71.8376 228.371 74.4143 228.016 76.9903Z" fill="#FF8B7B"/>
<path d="M226.462 69.3936C226.462 69.3936 223.029 70.7149 223.981 74.1897C224.933 77.6645 224.789 79.2161 224.298 80.2501C224.645 81.3412 227.501 81.8355 227.501 81.8355C227.501 81.8355 229.895 76.7898 230.241 73.954C230.587 71.1182 226.462 69.3936 226.462 69.3936Z" fill="#263238"/>
<path d="M229.178 68.5954C230.541 68.8429 232.548 66.5792 232.719 64.7354C232.719 64.7388 233.568 71.4071 229.178 68.5954Z" fill="#263238"/>
<path d="M228.782 68.088C229.474 71.0306 222.279 72.5526 212.932 72.3231C212.932 72.3231 212.875 68.7614 215.701 67.3546C218.528 65.9477 227.888 64.2679 228.782 68.088Z" fill="#263238"/>
<path d="M230.266 82.5361C229.531 83.7011 228.36 84.5261 227.012 84.828C225.217 85.2147 224.413 83.5872 224.989 81.9591C225.507 80.4916 227.066 78.5222 228.83 78.8669C229.609 79.0325 230.252 79.5771 230.541 80.3161C230.83 81.0551 230.727 81.8894 230.266 82.5361Z" fill="#FF8B7B"/>
<path d="M221.319 201.514C221.094 173.689 227.28 146.967 227.28 146.967L204.104 146.596C204.104 146.596 206.769 186.782 207.696 203.615C208.657 221.117 210.005 262.206 210.005 262.206L219.415 262.348C219.415 262.348 222.616 223.472 221.319 201.514Z" fill="#D34419"/>
<path opacity="0.2" d="M222.238 162.277C215.633 171.279 218.603 188.215 221.31 200.182C221.416 186.984 222.543 173.814 224.681 160.788L222.238 162.277Z" fill="#F36338"/>
<path d="M209.421 262.405L220.608 262.576L221.24 258.97L208.77 258.584L209.421 262.405Z" fill="#263238"/>
<path d="M220.706 77.9018C220.677 78.3464 220.416 78.6896 220.124 78.6683C219.832 78.6469 219.618 78.2685 219.647 77.8232C219.676 77.3779 219.937 77.0346 220.229 77.0567C220.522 77.0787 220.736 77.4565 220.706 77.9018Z" fill="#263238"/>
<path d="M214.527 77.5266C214.497 77.9718 214.236 78.3151 213.944 78.2937C213.652 78.2724 213.439 77.8933 213.468 77.4487C213.497 77.0041 213.758 76.6601 214.05 76.6822C214.342 76.7042 214.556 77.0847 214.527 77.5266Z" fill="#263238"/>
<path d="M216.12 77.8672C215.497 79.1872 214.694 80.415 213.733 81.5157C214.32 82.0011 215.092 82.2047 215.843 82.0726L216.12 77.8672Z" fill="#FF5652"/>
<path d="M217.65 83.4032C218.664 83.3605 219.615 82.8998 220.274 82.1315C220.317 82.0735 220.305 81.9917 220.247 81.9481C220.19 81.9046 220.107 81.9153 220.063 81.9723C219.315 82.8124 218.208 83.2455 217.085 83.1372C217.014 83.1324 216.952 83.1864 216.947 83.2578C216.944 83.3291 216.998 83.3902 217.07 83.3957C217.263 83.4111 217.457 83.4136 217.65 83.4032Z" fill="#263238"/>
<path d="M221.623 75.5934C221.668 75.5908 221.712 75.5766 221.749 75.552C221.808 75.514 221.848 75.4544 221.863 75.3863C221.877 75.3183 221.863 75.2474 221.825 75.1895C221.376 74.4693 220.606 74.0086 219.757 73.9522C219.687 73.9518 219.62 73.9792 219.571 74.0283C219.522 74.0774 219.494 74.1441 219.495 74.2134C219.496 74.3578 219.613 74.4748 219.758 74.4767C220.429 74.5316 221.034 74.9022 221.385 75.4741C221.437 75.5536 221.528 75.5991 221.623 75.5934Z" fill="#263238"/>
<path d="M212.497 75.2712C212.585 75.2764 212.669 75.237 212.722 75.1664C213.102 74.6179 213.725 74.2868 214.394 74.2779C214.464 74.2822 214.533 74.2585 214.585 74.2121C214.637 74.1658 214.668 74.1006 214.671 74.0311C214.678 73.8873 214.568 73.7646 214.423 73.7554C213.577 73.7543 212.784 74.1645 212.299 74.8541C212.213 74.9712 212.238 75.1353 212.356 75.2208C212.397 75.251 212.446 75.2685 212.497 75.2712Z" fill="#263238"/>
<path fill-rule="evenodd" clip-rule="evenodd" d="M210.896 269.48C210.889 269.528 210.854 269.568 210.807 269.584L210.788 269.585C209.891 269.749 208.294 269.942 207.694 269.395C207.514 269.233 207.425 268.993 207.458 268.754C207.466 268.608 207.551 268.477 207.681 268.409C208.362 268.045 210.577 269.207 210.827 269.342C210.878 269.368 210.906 269.424 210.896 269.48ZM210.354 269.391C209.479 268.959 208.276 268.481 207.855 268.619V268.622C207.838 268.626 207.822 268.632 207.807 268.639C207.755 268.666 207.722 268.719 207.721 268.777C207.698 268.935 207.755 269.094 207.873 269.201C208.207 269.508 209.123 269.575 210.354 269.391Z" fill="#407BFF"/>
<path fill-rule="evenodd" clip-rule="evenodd" d="M210.841 269.566C210.831 269.574 210.819 269.579 210.807 269.583C210.774 269.595 210.739 269.592 210.707 269.577C210.042 269.267 208.733 268.05 208.845 267.426C208.871 267.28 208.979 267.099 209.341 267.068C209.606 267.043 209.868 267.129 210.067 267.304C210.762 267.888 210.89 269.363 210.898 269.447C210.898 269.447 210.898 269.448 210.898 269.448C210.902 269.495 210.88 269.54 210.841 269.566ZM209.366 267.329C209.321 267.332 209.275 267.34 209.231 267.354C209.122 267.389 209.111 267.449 209.107 267.472C209.04 267.846 209.927 268.801 210.605 269.221C210.553 268.59 210.307 267.99 209.899 267.504C209.754 267.374 209.561 267.311 209.366 267.329Z" fill="#407BFF"/>
<path d="M248.59 269.814L243.03 269.727L241.195 256.893L246.756 256.98L248.59 269.814Z" fill="#FF8B7B"/>
<path d="M242.747 269.091L248.806 269.185C249.027 269.183 249.213 269.351 249.234 269.57L249.762 274.505C249.782 274.757 249.695 275.006 249.521 275.191C249.348 275.375 249.105 275.479 248.851 275.476C246.669 275.407 245.983 275.228 243.236 275.186C240.024 275.135 241.505 275.266 237.74 275.208C235.462 275.172 235.097 272.876 236.073 272.673C239.159 272.029 239.969 270.806 241.361 269.502C241.753 269.194 242.249 269.047 242.747 269.091Z" fill="#263238"/>
<path opacity="0.2" d="M241.197 256.9L242.142 263.517L247.705 263.604L246.76 256.987L241.197 256.9Z" fill="black"/>
<path d="M240.691 200.815C237.536 175.946 237.558 152.625 233.813 147.071L214.169 146.755C214.169 146.755 224.246 186.072 228.079 202.637C232.064 219.862 239.63 260.564 239.63 260.564L248.59 260.691C248.59 260.691 246.571 220.055 240.691 200.815Z" fill="#F36338"/>
<path d="M238.393 262.405L249.577 262.58L250.209 258.973L237.74 258.588L238.393 262.405Z" fill="#263238"/>
<path fill-rule="evenodd" clip-rule="evenodd" d="M243.964 269.44C243.941 269.484 243.894 269.511 243.845 269.509L243.827 269.506C242.927 269.353 241.364 268.989 240.988 268.27C240.875 268.056 240.875 267.801 240.988 267.587C241.046 267.452 241.171 267.358 241.316 267.339C242.078 267.23 243.758 269.078 243.947 269.29C243.985 269.331 243.992 269.392 243.964 269.44ZM243.484 269.177C242.812 268.473 241.847 267.612 241.403 267.597C241.386 267.596 241.368 267.597 241.351 267.599C241.293 267.607 241.243 267.646 241.223 267.7C241.147 267.84 241.145 268.009 241.219 268.15C241.43 268.557 242.265 268.93 243.484 269.177Z" fill="#407BFF"/>
<path fill-rule="evenodd" clip-rule="evenodd" d="M243.882 269.505C243.87 269.508 243.857 269.51 243.845 269.509C243.811 269.508 243.779 269.494 243.756 269.471C243.238 268.95 242.428 267.361 242.748 266.813C242.824 266.685 242.987 266.551 243.338 266.646C243.595 266.714 243.812 266.884 243.938 267.117C244.391 267.908 243.993 269.353 243.976 269.413C243.963 269.458 243.928 269.493 243.882 269.505ZM243.272 266.899C243.227 266.886 243.18 266.879 243.133 266.877C243.018 266.873 242.988 266.925 242.977 266.944C242.785 267.272 243.29 268.472 243.781 269.098C243.95 268.487 243.926 267.84 243.712 267.244C243.62 267.073 243.46 266.948 243.272 266.899Z" fill="#407BFF"/>
<path d="M238.845 102.5C240.776 105.947 242.519 109.383 244.198 112.917C245.845 116.46 247.415 120.043 248.787 123.791C249.126 124.729 249.456 125.676 249.764 126.647L250.007 127.398C250.126 127.79 250.218 128.189 250.284 128.594C250.41 129.372 250.436 130.163 250.359 130.948C250.209 132.315 249.817 133.645 249.201 134.877C248.676 135.935 248.039 136.935 247.3 137.858C245.967 139.53 244.441 141.04 242.754 142.358C241.95 143.006 241.116 143.602 240.261 144.166C239.407 144.729 238.576 145.257 237.614 145.773L235.191 142.395C235.785 141.78 236.459 141.097 237.068 140.429C237.684 139.75 238.278 139.059 238.855 138.371C239.967 137.058 240.961 135.649 241.825 134.162C242.603 132.776 243.085 131.343 242.987 130.514C242.975 130.341 242.941 130.17 242.885 130.006C242.861 129.94 242.832 129.875 242.799 129.812L242.553 129.21C242.22 128.373 241.857 127.532 241.483 126.69C240.003 123.312 238.325 119.935 236.631 116.575C234.936 113.215 233.179 109.82 231.448 106.521L238.845 102.5Z" fill="#FF8B7B"/>
<path d="M237.309 99.2343C242.44 100.816 246.688 114.156 246.688 114.156L235.517 120.388C233.423 116.476 231.581 112.435 230.001 108.29C227.356 101.229 231.094 97.3194 237.309 99.2343Z" fill="#263238"/>
<path d="M236.848 141.548L231.596 143.547L235.674 148.894C235.674 148.894 240.209 146.508 239.325 143.905L236.848 141.548Z" fill="#FF8B7B"/>
<path d="M229.173 148.841L230.919 150.476C231.615 151.126 232.681 151.18 233.439 150.602L235.674 148.898L231.596 143.55L229.115 146.07C228.748 146.442 228.548 146.946 228.559 147.468C228.569 147.989 228.791 148.484 229.173 148.841Z" fill="#FF8B7B"/>
<rect x="124.314" y="70.583" width="5.9618" height="0.688037" fill="#FFA489"/>
<rect x="104.251" y="70.583" width="13.2987" height="0.688037" fill="#FFA489"/>
<path d="M176.631 239.796H97.5404C92.7456 239.715 88.7915 236.014 88.3917 231.234L78.0887 81.552C77.9061 79.333 78.6665 77.1398 80.1834 75.5105C81.7003 73.8811 83.8333 72.9664 86.0591 72.9907H165.15C169.945 73.0719 173.899 76.7721 174.299 81.552L184.602 231.234C184.785 233.454 184.025 235.647 182.508 237.276C180.991 238.906 178.857 239.82 176.631 239.796Z" fill="white"/>
<path fill-rule="evenodd" clip-rule="evenodd" d="M86.0584 72.9902H165.15L165.149 72.9909C169.944 73.0721 173.898 76.7723 174.298 81.5521L184.602 231.235C184.785 233.454 184.025 235.647 182.508 237.276C180.991 238.906 178.857 239.82 176.631 239.796H97.5404C92.7456 239.715 88.7915 236.015 88.3917 231.235L78.0887 81.5521C77.9059 79.3332 78.6661 77.14 80.1829 75.5104C81.6997 73.8809 83.8326 72.966 86.0584 72.9902ZM173.611 81.5989C173.248 77.1746 169.588 73.748 165.15 73.6789V73.6783H86.0619C84.0316 73.6553 82.085 74.4858 80.6964 75.9674C79.309 77.4623 78.612 79.4707 78.7752 81.504L89.0796 231.188C89.4419 235.612 93.1027 239.039 97.5404 239.108H176.631C178.66 239.13 180.605 238.299 181.993 236.819C183.381 235.324 184.078 233.315 183.915 231.282L173.611 81.5989Z" fill="#F36338"/>
<path d="M179.917 239.796H100.826C96.0317 239.714 92.0778 236.014 91.6776 231.234L81.3754 81.5519C81.1927 79.3332 81.9531 77.1401 83.4698 75.5107C84.9866 73.8814 87.1194 72.9665 89.3451 72.9907H168.437C173.232 73.0722 177.186 76.7722 177.586 81.5519L187.887 231.234C188.07 233.453 187.309 235.646 185.793 237.276C184.276 238.905 182.143 239.82 179.917 239.796Z" fill="#FF8E6C"/>
<path d="M152.394 143.794H117.07C115.411 143.77 114.004 142.57 113.717 140.935L109.914 118.271C109.748 117.406 109.979 116.512 110.545 115.836C111.11 115.161 111.949 114.775 112.829 114.786H152.642C154.541 114.811 156.061 116.371 156.036 118.271L155.353 140.935C155.322 142.54 153.999 143.819 152.394 143.794Z" fill="white"/>
<path fill-rule="evenodd" clip-rule="evenodd" d="M117.069 144.825H152.394C154.553 144.839 156.327 143.123 156.385 140.964L157.068 118.3C157.094 117.112 156.64 115.964 155.809 115.115C154.979 114.253 153.837 113.762 152.641 113.753H112.829C111.655 113.745 110.537 114.256 109.774 115.149C109.01 116.063 108.689 117.268 108.896 118.441L112.7 141.105C113.068 143.237 114.906 144.802 117.069 144.825ZM111.349 116.484C111.718 116.052 112.261 115.808 112.829 115.819L152.64 115.816C153.278 115.825 153.886 116.09 154.326 116.551C154.77 116.999 155.014 117.607 155.004 118.238L154.32 140.902C154.311 141.403 154.103 141.881 153.742 142.23C153.381 142.578 152.896 142.769 152.394 142.759H117.069C115.917 142.732 114.942 141.899 114.735 140.764L110.931 118.1C110.822 117.526 110.975 116.933 111.349 116.484Z" fill="white"/>
<path d="M155.353 141.967H155.322C154.752 141.95 154.305 141.474 154.322 140.905L155.361 106.441C155.372 106.063 155.589 105.722 155.927 105.551C156.265 105.381 156.669 105.409 156.98 105.624L163.183 109.917C163.651 110.241 163.768 110.884 163.444 111.353C163.12 111.821 162.477 111.938 162.009 111.614L157.363 108.401L156.381 140.966C156.364 141.522 155.91 141.965 155.353 141.967Z" fill="white"/>
<ellipse cx="125.492" cy="154.337" rx="5.64947" ry="6.05257" transform="rotate(-45.9724 125.492 154.337)" fill="white"/>
<path fill-rule="evenodd" clip-rule="evenodd" d="M119.197 154.367C119.485 157.869 122.383 160.58 125.895 160.633C127.537 160.652 129.111 159.981 130.236 158.784C131.357 157.574 131.92 155.95 131.787 154.305C131.501 150.803 128.602 148.091 125.09 148.037C123.447 148.019 121.873 148.691 120.749 149.889C119.627 151.098 119.064 152.723 119.197 154.367ZM121.407 150.501C122.361 149.487 123.697 148.92 125.09 148.937C128.133 148.984 130.643 151.334 130.891 154.367C131.004 155.762 130.528 157.141 129.578 158.168C128.624 159.183 127.288 159.75 125.895 159.733C122.853 159.686 120.343 157.337 120.094 154.304C119.98 152.909 120.456 151.529 121.407 150.501Z" fill="white"/>
<ellipse cx="144.797" cy="154.337" rx="5.64947" ry="6.05257" transform="rotate(-45.9724 144.797 154.337)" fill="white"/>
<path fill-rule="evenodd" clip-rule="evenodd" d="M138.501 154.367C138.789 157.869 141.687 160.58 145.199 160.633C146.841 160.652 148.416 159.981 149.54 158.784C150.662 157.574 151.225 155.95 151.093 154.305C150.806 150.803 147.907 148.091 144.394 148.037C142.752 148.019 141.177 148.691 140.054 149.889C138.932 151.098 138.369 152.723 138.501 154.367ZM140.711 150.501C141.666 149.487 143.002 148.92 144.394 148.937C147.437 148.983 149.947 151.333 150.195 154.367C150.309 155.762 149.833 157.141 148.883 158.168C147.928 159.183 146.592 159.75 145.199 159.733C142.157 159.686 139.647 157.337 139.399 154.304C139.285 152.909 139.761 151.529 140.711 150.501Z" fill="white"/>
<ellipse cx="131.833" cy="106.221" rx="13.9882" ry="14.9849" transform="rotate(-45.9724 131.833 106.221)" fill="#D93F11"/>
<path fill-rule="evenodd" clip-rule="evenodd" d="M119.687 106.256C120.243 113.023 125.844 118.262 132.631 118.365C135.793 118.402 138.826 117.111 140.991 114.805C143.151 112.475 144.234 109.345 143.978 106.178C143.422 99.4113 137.822 94.1718 131.034 94.0686C127.872 94.0327 124.84 95.3248 122.675 97.6306C120.516 99.9602 119.432 103.089 119.687 106.256ZM123.481 98.3812C125.438 96.2993 128.178 95.134 131.034 95.1688C137.245 95.2637 142.37 100.059 142.878 106.251C143.112 109.113 142.134 111.941 140.184 114.049C138.228 116.131 135.488 117.298 132.631 117.264C126.419 117.168 121.294 112.372 120.786 106.179C120.553 103.317 121.531 100.488 123.481 98.3812Z" fill="white"/>
<path fill-rule="evenodd" clip-rule="evenodd" d="M134.462 230.172C134.701 233.099 137.123 235.365 140.058 235.409C141.423 235.425 142.732 234.867 143.666 233.871C144.598 232.866 145.066 231.515 144.955 230.148C144.715 227.222 142.294 224.957 139.359 224.912C137.994 224.897 136.685 225.454 135.751 226.45C134.819 227.455 134.351 228.806 134.462 230.172ZM136.002 226.684C136.872 225.759 138.09 225.241 139.359 225.256C142.114 225.298 144.387 227.426 144.612 230.172C144.716 231.444 144.281 232.701 143.415 233.637C142.545 234.562 141.327 235.08 140.058 235.065C137.303 235.023 135.029 232.895 134.805 230.148C134.701 228.877 135.135 227.62 136.002 226.684Z" fill="white"/>
<g opacity="0.2">
<path d="M98.5033 219.654C96.019 219.616 93.9692 217.698 93.7659 215.221L84.8057 85.0444C84.7088 83.8948 85.1018 82.7577 85.8877 81.9134C86.6737 81.069 87.7796 80.5959 88.9329 80.6107H168.025C170.509 80.6488 172.559 82.5673 172.761 85.0444L181.722 215.221C181.819 216.371 181.427 217.508 180.64 218.352C179.854 219.196 178.748 219.669 177.595 219.654H98.5033Z" fill="white"/>
<path fill-rule="evenodd" clip-rule="evenodd" d="M207.219 139.387H286.311C287.508 139.4 288.657 138.91 289.476 138.036C290.294 137.154 290.705 135.97 290.609 134.77L281.649 4.59358C281.438 2.0274 279.314 0.0401182 276.741 0.000247077H197.648C196.45 -0.0126202 195.302 0.4776 194.483 1.35155C193.665 2.23362 193.254 3.41833 193.35 4.61767L202.311 134.794C202.521 137.361 204.645 139.348 207.219 139.387ZM194.735 1.58342C195.49 0.779438 196.547 0.328911 197.649 0.341514L276.741 0.344266C279.135 0.381277 281.11 2.23037 281.305 4.61767L290.266 134.794C290.355 135.898 289.977 136.989 289.225 137.802C288.47 138.604 287.413 139.053 286.311 139.04H207.219C204.825 139.004 202.849 137.155 202.654 134.767L193.694 4.59083C193.604 3.48667 193.982 2.39559 194.735 1.58342Z" fill="white"/>
</g>
</svg>
