<svg width="22" height="21" viewBox="0 0 22 21" fill="none" xmlns="http://www.w3.org/2000/svg">
<path d="M6.47311 18.9689C6.98337 19.5344 7.63357 19.9909 8.37462 20.3039C9.11566 20.6169 9.92816 20.7782 10.7508 20.7756C11.5734 20.7782 12.3859 20.6169 13.1269 20.3039C13.868 19.9909 14.5182 19.5344 15.0284 18.9689C12.1896 19.3056 9.31194 19.3056 6.47311 18.9689ZM18.6658 7.41493V8.13847C18.6658 9.00691 18.9473 9.85583 19.4773 10.5783L20.7765 12.3491C21.962 13.9668 21.0568 16.1652 18.9942 16.676C13.6045 18.0137 7.89699 18.0137 2.50737 16.676C0.444757 16.1652 -0.460492 13.9668 0.72501 12.3491L2.02425 10.5783C2.55569 9.84986 2.8377 9.00312 2.83687 8.13847V7.41493C2.83687 3.44166 6.38047 0.220703 10.7508 0.220703C15.1211 0.220703 18.6658 3.44166 18.6658 7.41493Z" fill="#0F0E0D"/>
</svg>
