<svg width="25" height="25" viewBox="0 0 25 25" fill="none" xmlns="http://www.w3.org/2000/svg">
<path d="M15.6199 9.22412C15.6199 11.019 14.1648 12.4741 12.3699 12.4741V13.9741C14.9932 13.9741 17.1199 11.8475 17.1199 9.22412H15.6199ZM12.3699 12.4741C10.5749 12.4741 9.11987 11.019 9.11987 9.22412H7.61987C7.61987 11.8475 9.74652 13.9741 12.3699 13.9741V12.4741ZM9.11987 9.22412C9.11987 7.4292 10.5749 5.97412 12.3699 5.97412V4.47412C9.74652 4.47412 7.61987 6.60077 7.61987 9.22412H9.11987ZM12.3699 5.97412C14.1648 5.97412 15.6199 7.4292 15.6199 9.22412H17.1199C17.1199 6.60077 14.9932 4.47412 12.3699 4.47412V5.97412ZM9.36987 16.9741H15.3699V15.4741H9.36987V16.9741ZM3.11987 12.2241C3.11987 7.11549 7.26124 2.97412 12.3699 2.97412V1.47412C6.43281 1.47412 1.61987 6.28706 1.61987 12.2241H3.11987ZM12.3699 2.97412C17.4785 2.97412 21.6199 7.11549 21.6199 12.2241H23.1199C23.1199 6.28706 18.3069 1.47412 12.3699 1.47412V2.97412ZM21.6199 12.2241C21.6199 14.8474 20.5288 17.2146 18.7738 18.8989L19.8124 19.9812C21.85 18.0257 23.1199 15.2726 23.1199 12.2241H21.6199ZM18.7738 18.8989C17.111 20.4946 14.8556 21.4741 12.3699 21.4741V22.9741C15.2581 22.9741 17.8815 21.8342 19.8124 19.9812L18.7738 18.8989ZM15.3699 16.9741C16.9459 16.9741 18.2614 18.0967 18.5574 19.5863L20.0287 19.2939C19.5958 17.116 17.6754 15.4741 15.3699 15.4741V16.9741ZM12.3699 21.4741C9.88412 21.4741 7.62872 20.4946 5.96599 18.8989L4.92738 19.9812C6.8582 21.8342 9.48169 22.9741 12.3699 22.9741V21.4741ZM5.96599 18.8989C4.21091 17.2146 3.11987 14.8474 3.11987 12.2241H1.61987C1.61987 15.2726 2.88976 18.0257 4.92738 19.9812L5.96599 18.8989ZM9.36987 15.4741C7.06432 15.4741 5.14391 17.116 4.71107 19.2939L6.1823 19.5863C6.47833 18.0967 7.79384 16.9741 9.36987 16.9741V15.4741Z" fill="#5E5F60"/>
</svg>
