<svg width="7" height="7" viewBox="0 0 7 7" fill="none" xmlns="http://www.w3.org/2000/svg">
<path d="M5.98218 1.13281H5.16968V0.820312C5.16968 0.770584 5.14992 0.722893 5.11476 0.68773C5.0796 0.652567 5.03191 0.632812 4.98218 0.632812C4.93245 0.632812 4.88476 0.652567 4.8496 0.68773C4.81443 0.722893 4.79468 0.770584 4.79468 0.820312V1.13281H2.16968V0.820312C2.16968 0.770584 2.14992 0.722893 2.11476 0.68773C2.0796 0.652567 2.03191 0.632812 1.98218 0.632812C1.93245 0.632812 1.88476 0.652567 1.8496 0.68773C1.81443 0.722893 1.79468 0.770584 1.79468 0.820312V1.13281H0.982178C0.866146 1.13281 0.754866 1.17891 0.672819 1.26095C0.590771 1.343 0.544678 1.45428 0.544678 1.57031V6.57031C0.544678 6.68634 0.590771 6.79762 0.672819 6.87967C0.754866 6.96172 0.866146 7.00781 0.982178 7.00781H5.98218C6.09821 7.00781 6.20949 6.96172 6.29154 6.87967C6.37358 6.79762 6.41968 6.68634 6.41968 6.57031V1.57031C6.41968 1.45428 6.37358 1.343 6.29154 1.26095C6.20949 1.17891 6.09821 1.13281 5.98218 1.13281ZM0.982178 1.50781H1.79468V1.82031C1.79468 1.87004 1.81443 1.91773 1.8496 1.9529C1.88476 1.98806 1.93245 2.00781 1.98218 2.00781C2.03191 2.00781 2.0796 1.98806 2.11476 1.9529C2.14992 1.91773 2.16968 1.87004 2.16968 1.82031V1.50781H4.79468V1.82031C4.79468 1.87004 4.81443 1.91773 4.8496 1.9529C4.88476 1.98806 4.93245 2.00781 4.98218 2.00781C5.03191 2.00781 5.0796 1.98806 5.11476 1.9529C5.14992 1.91773 5.16968 1.87004 5.16968 1.82031V1.50781H5.98218C5.99875 1.50781 6.01465 1.5144 6.02637 1.52612C6.03809 1.53784 6.04468 1.55374 6.04468 1.57031V2.63281H0.919678V1.57031C0.919678 1.55374 0.926262 1.53784 0.937984 1.52612C0.949705 1.5144 0.965602 1.50781 0.982178 1.50781ZM5.98218 6.63281H0.982178C0.965602 6.63281 0.949705 6.62623 0.937984 6.61451C0.926262 6.60279 0.919678 6.58689 0.919678 6.57031V3.00781H6.04468V6.57031C6.04468 6.58689 6.03809 6.60279 6.02637 6.61451C6.01465 6.62623 5.99875 6.63281 5.98218 6.63281ZM2.91968 3.82031V5.82031C2.91968 5.87004 2.89992 5.91773 2.86476 5.9529C2.8296 5.98806 2.78191 6.00781 2.73218 6.00781C2.68245 6.00781 2.63476 5.98806 2.5996 5.9529C2.56443 5.91773 2.54468 5.87004 2.54468 5.82031V4.12375L2.31593 4.23812C2.29389 4.24912 2.2699 4.25567 2.24533 4.2574C2.22076 4.25913 2.1961 4.256 2.17274 4.24819C2.14938 4.24039 2.12778 4.22806 2.10919 4.21191C2.09059 4.19576 2.07536 4.1761 2.06437 4.15406C2.05337 4.13202 2.04682 4.10804 2.04509 4.08347C2.04336 4.0589 2.04649 4.03423 2.0543 4.01087C2.0621 3.98751 2.07443 3.96592 2.09058 3.94732C2.10673 3.92873 2.12639 3.9135 2.14843 3.9025L2.64843 3.6525C2.67702 3.63823 2.70878 3.6315 2.74071 3.63295C2.77263 3.6344 2.80365 3.64399 2.83082 3.6608C2.858 3.67762 2.88043 3.7011 2.89598 3.72901C2.91153 3.75693 2.91969 3.78836 2.91968 3.82031ZM4.78124 4.73438L4.10718 5.63281H4.73218C4.78191 5.63281 4.8296 5.65257 4.86476 5.68773C4.89992 5.72289 4.91968 5.77058 4.91968 5.82031C4.91968 5.87004 4.89992 5.91773 4.86476 5.9529C4.8296 5.98806 4.78191 6.00781 4.73218 6.00781H3.73218C3.69736 6.00781 3.66322 5.99812 3.6336 5.97981C3.60398 5.9615 3.58004 5.93531 3.56447 5.90417C3.5489 5.87302 3.54231 5.83815 3.54544 5.80347C3.54856 5.76879 3.56129 5.73567 3.58218 5.70781L4.48218 4.50781C4.50809 4.47376 4.52674 4.43475 4.53696 4.39319C4.54718 4.35164 4.54876 4.30843 4.54159 4.26624C4.53443 4.22405 4.51868 4.18378 4.49531 4.14793C4.47195 4.11208 4.44147 4.08141 4.40576 4.05782C4.37006 4.03423 4.32989 4.01823 4.28775 4.0108C4.2456 4.00337 4.20238 4.00468 4.16077 4.01464C4.11915 4.0246 4.08002 4.043 4.04581 4.06871C4.01159 4.09441 3.98302 4.12686 3.96187 4.16406C3.95068 4.18738 3.9348 4.20812 3.91521 4.225C3.89563 4.24188 3.87276 4.25453 3.84805 4.26215C3.82335 4.26977 3.79733 4.2722 3.77164 4.26928C3.74595 4.26636 3.72114 4.25816 3.69877 4.24519C3.6764 4.23222 3.65695 4.21477 3.64165 4.19392C3.62635 4.17308 3.61553 4.1493 3.60986 4.12407C3.6042 4.09884 3.60381 4.07271 3.60873 4.04733C3.61364 4.02194 3.62375 3.99785 3.63843 3.97656C3.68555 3.89567 3.7487 3.82525 3.824 3.76962C3.8993 3.71399 3.98517 3.67433 4.07634 3.65307C4.16752 3.6318 4.26207 3.62939 4.35421 3.64596C4.44635 3.66254 4.53414 3.69776 4.61219 3.74946C4.69023 3.80116 4.7569 3.86826 4.80809 3.94665C4.85929 4.02503 4.89394 4.11304 4.90991 4.20529C4.92589 4.29754 4.92285 4.39207 4.90099 4.48311C4.87914 4.57414 4.83892 4.65975 4.7828 4.73469L4.78124 4.73438Z" fill="black"/>
</svg>
